HIERARCHY
ROOT Torso
{
	OFFSET 0.000000 0.000000 0.000000
	CHANNELS 6 Xposition Yposition Zposition Zrotation Yrotation Xrotation 
	JOINT LHip
	{
		OFFSET 0.000000 0.000000 0.000000
		CHANNELS 3 Zrotation Yrotation Xrotation
		JOINT LThigh
		{
			OFFSET 0.055000 -0.055000 -0.010000
			CHANNELS 3 Zrotation Yrotation Xrotation
			JOINT LLeg
			{
				OFFSET 0.000000 -0.160000 0.015000
				CHANNELS 3 Zrotation Yrotation Xrotation
				JOINT LFoot
				{
					OFFSET 0.000000 -0.160000 -0.010000
					CHANNELS 3 Zrotation Yrotation Xrotation
					JOINT LToes
					{
						OFFSET 0.000000 0.000000 0.090000
						CHANNELS 3 Zrotation Yrotation Xrotation
						End Site
						{
							OFFSET 0.000000 0.000000 0.000000
						}
					}
				}
			}
		}
	}
	JOINT RHip
	{
		OFFSET 0.000000 0.000000 0.000000
		CHANNELS 3 Zrotation Yrotation Xrotation
		JOINT RThigh
		{
			OFFSET -0.055000 -0.055000 -0.010000
			CHANNELS 3 Zrotation Yrotation Xrotation
			JOINT RLeg
			{
				OFFSET 0.000000 -0.160000 0.015000
				CHANNELS 3 Zrotation Yrotation Xrotation
				JOINT RFoot
				{
					OFFSET 0.000000 -0.160000 -0.010000
					CHANNELS 3 Zrotation Yrotation Xrotation
					JOINT RToes
					{
						OFFSET 0.000000 0.000000 0.090000
						CHANNELS 3 Zrotation Yrotation Xrotation
						End Site
						{
							OFFSET 0.000000 0.000000 0.000000
						}
					}
				}
			}
		}
	}
	JOINT Neck
	{
		OFFSET 0.000000 0.135000 0.000000
		CHANNELS 3 Zrotation Yrotation Xrotation
		JOINT Head
		{
			OFFSET 0.000000 0.075000 0.000000
			CHANNELS 3 Zrotation Yrotation Xrotation
			End Site
			{
				OFFSET 0.000000 0.000000 0.000000
			}
		}
	}
	JOINT LUpperarm
	{
		OFFSET 0.098000 0.150000 0.000000
		CHANNELS 3 Zrotation Yrotation Xrotation
		JOINT LLowerarm
		{
			OFFSET 0.000000 0.009000 0.090000
			CHANNELS 3 Zrotation Yrotation Xrotation
			JOINT LHand
			{
				OFFSET 0.000000 0.000000 0.105000
				CHANNELS 3 Zrotation Yrotation Xrotation
				End Site
				{
					OFFSET 0.000000 0.000000 0.000000
				}
			}
		}
	}
	JOINT RUpperarm
	{
		OFFSET -0.098000 0.150000 0.000000
		CHANNELS 3 Zrotation Yrotation Xrotation
		JOINT RLowerarm
		{
			OFFSET 0.000000 0.009000 0.090000
			CHANNELS 3 Zrotation Yrotation Xrotation
			JOINT RHand
			{
				OFFSET 0.000000 0.000000 0.105000
				CHANNELS 3 Zrotation Yrotation Xrotation
				End Site
				{
					OFFSET 0.000000 0.000000 0.000000
				}
			}
		}
	}
}
MOTION
Frames: 13
Frame Time: 0.040000
-0.010979 0.415477 0.414397 176.877369 8.961025 -179.968757 0.270104 -6.318039 -4.399496 -9.429079 4.100784 -7.011337 9.090969 7.318357 34.418976 3.836552 -8.473299 12.530386 0.430400 -4.209998 -11.668294 -6.594069 3.809513 -9.385384 12.143359 8.431722 1.588767 -9.604940 -7.214280 28.893458 -1.184281 3.137451 5.288403 -0.305100 3.550998 -9.816795 0.451354 0.127807 0.146181 -5.200797 4.570998 -5.325897 19.666098 51.960673 106.967687 12.186158 -27.697049 -6.996730 0.832846 3.065393 -19.557234 -11.749819 -47.400919 93.876199 -28.430030 35.418470 -15.907718 -0.470509 -4.332619 -8.594046 
-0.011641 0.415420 0.414196 176.903349 9.210081 -179.957709 0.172734 -6.116713 -4.391597 -9.556343 4.242702 -6.226165 8.960674 7.113949 33.124758 3.855991 -8.348529 11.974191 0.463500 -4.366798 -12.111094 -6.636366 3.945030 -9.364504 12.009995 8.438774 0.887060 -9.761621 -7.407652 29.963162 -1.218274 3.321340 5.260585 -0.380600 3.962198 -10.970395 0.566768 0.033103 0.107038 -5.273797 4.626898 -5.274897 18.865273 51.417690 105.665479 12.784408 -28.234327 -7.264059 0.800815 3.117353 -20.037121 -11.752532 -47.223465 94.186889 -27.608657 34.767724 -15.350534 -0.464459 -4.322045 -8.637900 
-0.012320 0.415484 0.414047 176.925132 9.438424 -179.915377 0.093787 -5.934101 -4.413430 -9.676534 4.328535 -5.533801 8.812464 6.919816 31.944498 3.825622 -8.121750 11.712889 0.482200 -4.453098 -12.354894 -6.690905 4.082115 -9.352816 11.865859 8.450913 0.092180 -9.929350 -7.622402 31.138189 -1.242677 3.483735 5.288095 -0.486900 4.474298 -12.415094 0.704535 -0.054419 0.034036 -5.327197 4.676098 -5.231497 18.100029 50.846045 104.346411 13.439523 -28.857736 -7.586231 0.770715 3.176203 -20.478667 -11.776548 -47.079468 94.531129 -26.753557 34.094045 -14.808635 -0.465361 -4.303503 -8.622005 
-0.013014 0.415642 0.413922 176.972346 9.650722 -179.871943 0.059567 -5.763883 -4.444476 -9.798793 4.364195 -4.881727 8.659523 6.726194 30.846224 3.780038 -7.891469 11.638002 0.484800 -4.464798 -12.388194 -6.726714 4.221799 -9.331780 11.705346 8.487291 -0.770958 -10.098647 -7.854851 32.409573 -1.251217 3.611005 5.431499 -0.587000 4.905398 -13.638893 0.810139 -0.135238 -0.014268 -5.372697 4.709798 -5.173797 17.438531 50.194379 103.057128 14.222038 -29.549417 -7.972016 0.725475 3.236131 -20.951267 -11.758690 -46.917486 94.843586 -25.852267 33.376007 -14.225956 -0.479573 -4.286118 -8.571420 
-0.013699 0.415902 0.413853 177.041656 9.850443 -179.794101 0.057980 -5.598900 -4.512518 -9.906280 4.325853 -4.264577 8.495907 6.536543 29.795352 3.714885 -7.627156 11.686935 0.457600 -4.339598 -12.033994 -6.756233 4.374018 -9.331621 11.542046 8.526171 -1.746407 -10.262302 -8.088654 33.745585 -1.226745 3.654935 5.798748 -0.696200 5.333797 -14.863193 0.912486 -0.212147 -0.085571 -5.382897 4.738198 -5.116697 16.827496 49.594094 101.769058 15.032408 -30.275183 -8.400346 0.681855 3.291988 -21.401570 -11.735833 -46.788673 95.178466 -24.937097 32.653080 -13.658831 -0.503962 -4.267749 -8.519624 
-0.014396 0.416268 0.413828 177.111494 10.031623 -179.692601 0.065001 -5.446137 -4.600198 -10.006065 4.278752 -3.679664 8.337645 6.345182 28.774338 3.650171 -7.376929 11.783784 0.436500 -4.239798 -11.752194 -6.797583 4.526372 -9.335088 11.365702 8.536904 -2.850300 -10.409637 -8.322950 35.132613 -1.153847 3.562022 6.467497 -0.807300 5.733997 -16.014492 1.006167 -0.280849 -0.171345 -5.376997 4.758698 -5.077497 16.264732 49.140667 100.540910 15.875206 -31.039515 -8.872362 0.641755 3.344791 -21.628775 -11.666601 -46.814417 95.534823 -23.922373 31.857941 -13.045151 -0.553143 -4.241017 -8.266086 
-0.015084 0.416706 0.413858 177.196966 10.185917 -179.560665 0.079207 -5.307588 -4.711116 -10.084472 4.198317 -3.144112 8.183941 6.156750 27.802860 3.579076 -7.119370 11.933411 0.392500 -4.022698 -11.140594 -6.850127 4.670180 -9.352632 11.198681 8.577997 -4.037488 -10.544061 -8.563588 36.569180 -1.051450 3.379004 7.363635 -0.864000 5.926997 -16.572692 1.108636 -0.339064 -0.286425 -5.371997 4.769298 -5.040297 15.777048 48.721013 99.348283 16.764644 -31.860802 -9.399195 0.592375 3.397502 -21.864132 -11.513562 -47.091928 95.925082 -22.778590 30.973518 -12.370920 -0.637907 -4.197850 -7.639104 
-0.015774 0.417211 0.413942 177.298014 10.332156 -179.393767 0.126353 -5.177790 -4.849671 -10.153274 4.094148 -2.724344 8.036760 5.986332 26.914158 3.502518 -6.854895 12.147798 0.350700 -3.804998 -10.528595 -6.894846 4.823039 -9.378390 11.008339 8.585494 -5.327728 -10.672983 -8.808075 38.064657 -0.924124 3.112096 8.510181 -0.885000 5.996697 -16.774892 1.184754 -0.391704 -0.423216 -5.332297 4.785898 -5.000598 15.299569 48.307155 98.137538 17.652179 -32.677013 -9.957102 0.541479 3.443452 -22.113779 -11.346517 -47.520659 96.338409 -21.562341 30.057484 -11.681812 -0.745562 -4.143540 -6.798821 
-0.016445 0.417677 0.414091 177.389164 10.441756 -179.215751 0.170508 -5.069280 -4.981956 -10.208672 4.030594 -2.414099 7.914882 5.834001 26.133267 3.453308 -6.679161 12.381104 0.317500 -3.621898 -10.015395 -6.958466 4.954013 -9.396230 10.793324 8.603351 -6.706815 -10.802786 -9.069946 39.627154 -0.787766 2.789572 9.800465 -0.800200 5.709497 -15.943892 1.259126 -0.432065 -0.549281 -5.269697 4.787998 -4.973398 14.774398 47.899994 96.873224 18.532190 -33.469132 -10.512217 0.494768 3.486278 -22.327493 -11.192445 -47.950158 96.734545 -20.317609 29.107377 -10.995961 -0.853702 -4.076836 -5.979626 
-0.017101 0.418054 0.414298 177.495746 10.547221 -179.019224 0.229758 -4.977579 -5.102339 -10.240626 4.095053 -2.231452 7.820797 5.704144 25.460841 3.448351 -6.643969 12.652570 0.292900 -3.480198 -9.618695 -7.034742 5.083824 -9.426598 10.575524 8.600248 -8.162648 -10.949445 -9.343375 41.270282 -0.660598 2.465481 11.202797 -0.657500 5.186297 -14.440693 1.298034 -0.468730 -0.701935 -5.222897 4.785098 -4.943298 14.326896 47.578325 95.695460 19.425891 -34.262838 -11.110191 0.448181 3.515417 -22.530708 -11.120010 -48.315889 97.149819 -19.114071 28.227434 -10.375049 -0.948085 -4.017334 -5.252727 
-0.017736 0.418397 0.414529 177.590797 10.643022 -178.828263 0.270081 -4.896635 -5.213738 -10.259540 4.167633 -2.083279 7.736478 5.587013 24.854445 3.442243 -6.605800 12.924229 0.270300 -3.344298 -9.238695 -7.132824 5.188400 -9.430541 10.342537 8.549158 -9.716929 -11.120284 -9.637724 43.003389 -0.537149 2.098355 12.640561 -0.487000 4.474798 -12.416294 1.329847 -0.495974 -0.847562 -5.121497 4.776398 -4.909798 13.911255 47.298990 94.556997 20.357843 -35.073953 -11.737958 0.402183 3.544067 -22.804922 -11.069425 -48.647988 97.564163 -17.910611 27.340904 -9.776349 -1.041941 -3.951858 -4.587889 
-0.018341 0.418758 0.414801 177.682202 10.731660 -178.637174 0.290306 -4.812384 -5.329293 -10.262005 4.169153 -1.948246 7.647919 5.479521 24.276804 3.413336 -6.492059 13.188633 0.258300 -3.269998 -9.031396 -7.239959 5.269096 -9.420602 10.105493 8.510906 -11.341928 -11.314178 -9.952411 44.824403 -0.402721 1.622876 14.079624 -0.318900 3.629798 -10.037395 1.355161 -0.523638 -0.990116 -5.008997 4.776498 -4.851098 13.470891 47.214772 93.461625 21.296832 -35.872059 -12.371275 0.364260 3.566748 -22.970644 -11.011316 -48.983417 97.955109 -16.675705 26.425567 -9.174751 -1.141667 -3.875447 -3.916960 
-0.018931 0.419212 0.415077 177.783872 10.808799 -178.447901 0.329895 -4.724916 -5.463357 -10.281862 4.116947 -1.752927 7.550659 5.363450 23.672194 3.361804 -6.309158 13.454986 0.251300 -3.225798 -8.907896 -7.323312 5.337073 -9.409845 9.857494 8.453795 -13.051758 -11.532324 -10.289138 46.728261 -0.250661 1.001892 15.551527 -0.207900 2.935999 -8.100496 1.373037 -0.553318 -1.109030 -4.909598 4.770498 -4.807198 13.095154 47.304084 92.487846 22.283691 -36.693813 -13.045956 0.337841 3.582608 -23.012087 -10.930638 -49.513948 98.363588 -15.387492 25.472023 -8.555776 -1.260094 -3.778773 -3.027324 
